<svg width="1920" height="1080" viewBox="0 0 1920 1080" fill="none" xmlns="http://www.w3.org/2000/svg">
  <defs>
    <linearGradient id="sky" x1="0%" y1="0%" x2="0%" y2="100%">
      <stop offset="0%" style="stop-color:#1e3a8a;stop-opacity:1" />
      <stop offset="50%" style="stop-color:#3b82f6;stop-opacity:1" />
      <stop offset="100%" style="stop-color:#60a5fa;stop-opacity:1" />
    </linearGradient>
    <linearGradient id="mountains" x1="0%" y1="0%" x2="0%" y2="100%">
      <stop offset="0%" style="stop-color:#374151;stop-opacity:1" />
      <stop offset="100%" style="stop-color:#1f2937;stop-opacity:1" />
    </linearGradient>
    <linearGradient id="hills" x1="0%" y1="0%" x2="0%" y2="100%">
      <stop offset="0%" style="stop-color:#059669;stop-opacity:1" />
      <stop offset="100%" style="stop-color:#047857;stop-opacity:1" />
    </linearGradient>
  </defs>
  
  <!-- Sky -->
  <rect width="1920" height="1080" fill="url(#sky)"/>
  
  <!-- Distant Mountains -->
  <path d="M0 600 L200 400 L400 500 L600 350 L800 450 L1000 300 L1200 400 L1400 350 L1600 450 L1800 380 L1920 420 L1920 1080 L0 1080 Z" fill="url(#mountains)" opacity="0.8"/>
  
  <!-- Closer Mountains -->
  <path d="M0 700 L300 500 L500 600 L700 450 L900 550 L1100 400 L1300 500 L1500 450 L1700 550 L1920 500 L1920 1080 L0 1080 Z" fill="url(#mountains)" opacity="0.9"/>
  
  <!-- Foreground Hills -->
  <path d="M0 800 L400 650 L600 750 L800 600 L1000 700 L1200 550 L1400 650 L1600 600 L1800 700 L1920 650 L1920 1080 L0 1080 Z" fill="url(#hills)"/>
  
  <!-- Snow peaks -->
  <path d="M400 400 L450 350 L500 400 L480 380 L460 360 L440 380 L420 360 L400 400" fill="white" opacity="0.9"/>
  <path d="M800 300 L850 250 L900 300 L880 280 L860 260 L840 280 L820 260 L800 300" fill="white" opacity="0.9"/>
  <path d="M1200 400 L1250 350 L1300 400 L1280 380 L1260 360 L1240 380 L1220 360 L1200 400" fill="white" opacity="0.9"/>
  
  <!-- Clouds -->
  <ellipse cx="300" cy="200" rx="80" ry="40" fill="white" opacity="0.3"/>
  <ellipse cx="350" cy="180" rx="60" ry="30" fill="white" opacity="0.3"/>
  <ellipse cx="400" cy="200" rx="70" ry="35" fill="white" opacity="0.3"/>
  
  <ellipse cx="1200" cy="150" rx="90" ry="45" fill="white" opacity="0.2"/>
  <ellipse cx="1250" cy="130" rx="70" ry="35" fill="white" opacity="0.2"/>
  <ellipse cx="1300" cy="150" rx="80" ry="40" fill="white" opacity="0.2"/>
  
  <ellipse cx="1600" cy="250" rx="70" ry="35" fill="white" opacity="0.25"/>
  <ellipse cx="1650" cy="230" rx="50" ry="25" fill="white" opacity="0.25"/>
  <ellipse cx="1700" cy="250" rx="60" ry="30" fill="white" opacity="0.25"/>
</svg>
